<?xml version="1.0" encoding="UTF-8"?>
<svg version="1.1" xmlns="http://www.w3.org/2000/svg" width="1024" height="294">
<path d="M0 0 C0 0.66 0 1.32 0 2 C1.546875 1.9071875 1.546875 1.9071875 3.125 1.8125 C7.26656148 2.01289814 9.50462369 2.83619562 13 5 C13.33 5.66 13.66 6.32 14 7 C14.66 7 15.32 7 16 7 C18.4027241 11.24010135 17.88897555 14.47922168 17.28515625 19.1015625 C16.85779419 23.44543441 17.0288861 27.75901837 17.16015625 32.1171875 C17.00007953 34.99856843 16.49652764 36.57034337 15 39 C15.66 39 16.32 39 17 39 C17 39.66 17 40.32 17 41 C20.99353209 41.79870642 24.72558568 42.03096618 28.79296875 41.96875 C32.09293635 42.01547521 35.34020899 42.41827288 38.6171875 42.7890625 C41.2140813 43.06773204 41.2140813 43.06773204 44.6875 42.875 C48.81429396 43.03072807 51.31283032 44.19403934 55 46 C55.10914609 47.87367462 55.1861054 49.74923698 55.25 51.625 C55.29640625 52.66914062 55.3428125 53.71328125 55.390625 54.7890625 C54.867274 59.09100774 54.12615868 60.94654268 51 64 C47.22731194 64.74175145 43.57593533 64.56435467 39.75 64.375 C38.203125 64.33439453 38.203125 64.33439453 36.625 64.29296875 C34.0812125 64.22230799 31.54166901 64.12372078 29 64 C29 64.66 29 65.32 29 66 C26.03 66 23.06 66 20 66 C20 65.34 20 64.68 20 64 C18.35 64 16.7 64 15 64 C15.00785522 65.58868896 15.00785522 65.58868896 15.01586914 67.20947266 C15.03403406 71.15672961 15.04547389 75.1039829 15.05493164 79.05126953 C15.05994564 80.75635399 15.0667585 82.46143418 15.07543945 84.16650391 C15.08763385 86.62403419 15.09325775 89.08150738 15.09765625 91.5390625 C15.10281754 92.29555084 15.10797882 93.05203918 15.11329651 93.83145142 C15.11361724 96.89003865 15.0346884 99.80352314 14.50219727 102.81958008 C13.73895866 107.65317724 13.85774202 112.46196935 13.8671875 117.34765625 C13.86623077 118.43711044 13.86527405 119.52656464 13.86428833 120.64903259 C13.86360945 122.94611672 13.86544332 125.24320279 13.86962891 127.5402832 C13.87498642 131.053592 13.86967131 134.56677326 13.86328125 138.08007812 C13.86394198 140.31510445 13.86522304 142.55013069 13.8671875 144.78515625 C13.86415115 146.35874657 13.86415115 146.35874657 13.86105347 147.96412659 C13.86420563 148.94542038 13.86735779 149.92671417 13.87060547 150.93774414 C13.87140106 151.79678848 13.87219666 152.65583282 13.87301636 153.54090881 C14.00580222 156.11236236 14.47780374 158.48217966 15 161 C15.03772913 162.9996441 15.04649906 165.00054061 15 167 C15.66 167.33 16.32 167.66 17 168 C17.4125 168.969375 17.825 169.93875 18.25 170.9375 C19.77357007 174.15607315 19.77357007 174.15607315 22.75 175.75 C25.91062995 176.31975445 25.91062995 176.31975445 27.875 174.80859375 C29.11298165 173.73825545 30.31801749 172.62843774 31.484375 171.48046875 C33 170 33 170 35 169 C35.71706982 167.01751285 36.38290413 165.01584651 37 163 C37.33 162.34 37.66 161.68 38 161 C38.66 161 39.32 161 40 161 C41.39778832 155.56262474 41.39778832 155.56262474 42.5 150.0625 C42.665 149.381875 42.83 148.70125 43 148 C43.66 147.67 44.32 147.34 45 147 C44.98839844 145.97519531 44.97679687 144.95039063 44.96484375 143.89453125 C44.95545978 142.533856 44.94636023 141.17317876 44.9375 139.8125 C44.92912109 139.13896484 44.92074219 138.46542969 44.91210938 137.77148438 C44.89387911 134.03427913 45.1465922 130.63488506 46 127 C46.46074973 123.54437705 46.88506882 120.09184625 47.25 116.625 C47.3325 115.84125 47.415 115.0575 47.5 114.25 C47.5721875 113.53328125 47.644375 112.8165625 47.71875 112.078125 C48.13832023 108.97796721 48.88839473 106.27573068 50.0625 103.375 C51.12238884 101.11550447 51.12238884 101.11550447 51 99 C51.66 98.67 52.32 98.34 53 98 C53.60061233 96.09821215 53.60061233 96.09821215 54 94 C54.33 93.01 54.66 92.02 55 91 C55.66 91 56.32 91 57 91 C57.33 89.02 57.66 87.04 58 85 C58.66 85 59.32 85 60 85 C60 84.34 60 83.68 60 83 C60.66 83 61.32 83 62 83 C62.12375 82.360625 62.2475 81.72125 62.375 81.0625 C62.684375 80.0415625 62.684375 80.0415625 63 79 C63.66 78.67 64.32 78.34 65 78 C65.28875 77.38125 65.5775 76.7625 65.875 76.125 C67.22136017 73.58187524 68.55245771 72.48335896 71 71 C71.99 71 72.98 71 74 71 C74 70.34 74 69.68 74 69 C74.66 69 75.32 69 76 69 C76 68.34 76 67.68 76 67 C76.95712891 66.92652344 76.95712891 66.92652344 77.93359375 66.8515625 C79.17302734 66.73941406 79.17302734 66.73941406 80.4375 66.625 C81.26121094 66.55539063 82.08492188 66.48578125 82.93359375 66.4140625 C83.61550781 66.27742188 84.29742187 66.14078125 85 66 C85.33 65.34 85.66 64.68 86 64 C89.33333333 64 92.66666667 64 96 64 C96 64.66 96 65.32 96 66 C96.886875 65.9175 97.77375 65.835 98.6875 65.75 C102.73187485 66.05523584 104.02977495 67.35088036 107 70 C107.99 70.33 108.98 70.66 110 71 C110 71.66 110 72.32 110 73 C112.29294488 73.85974801 112.29294488 73.85974801 115 74 C117.18739868 72.22931824 117.18739868 72.22931824 119 70 C120.485 69.01 120.485 69.01 122 68 C122 68.66 122 69.32 122 70 C123.65 70 125.3 70 127 70 C127 69.34 127 68.68 127 68 C127.66 68 128.32 68 129 68 C129.33 68.66 129.66 69.32 130 70 C130.9075 69.95875 131.815 69.9175 132.75 69.875 C135.8782046 69.99531556 137.38614006 70.3914708 140 72 C140 72.66 140 73.32 140 74 C141.32 74.33 142.64 74.66 144 75 C144.95538305 82.2532681 145.18317597 89.37556166 145.1875 96.6875 C145.19974609 97.78900391 145.21199219 98.89050781 145.22460938 100.02539062 C145.23432941 105.39409271 145.21676043 109.9969557 143 115 C143.66 115 144.32 115 145 115 C145 117.64 145 120.28 145 123 C144.34 123 143.68 123 143 123 C143 131.58 143 140.16 143 149 C143.66 149 144.32 149 145 149 C145 157 145 157 144.875 160.25 C145.0058857 164.17657098 145.84395047 167.25983977 147 171 C147.12375 172.093125 147.2475 173.18625 147.375 174.3125 C147.69787879 177.08578697 147.69787879 177.08578697 149.75 178.17578125 C152.29422834 179.10778156 153.94117841 179.15325575 156.625 178.875 C157.78902344 178.77832031 157.78902344 178.77832031 158.9765625 178.6796875 C161.17283921 178.18653886 161.17283921 178.18653886 162.1484375 176.0703125 C162.56996094 175.04550781 162.56996094 175.04550781 163 174 C163.66 173.34 164.32 172.68 165 172 C165.71247732 170.3523962 166.37400383 168.68236471 167 167 C167.37125 166.175 167.7425 165.35 168.125 164.5 C169.05688223 161.83747934 169.15993416 159.79884788 169 157 C168.34 156.67 167.68 156.34 167 156 C167.66 156 168.32 156 169 156 C168.67515625 154.99710938 168.3503125 153.99421875 168.015625 152.9609375 C165.44697858 143.93436909 166.49479365 133.92479764 169 125 C168.34 124.67 167.68 124.34 167 124 C167.66 124 168.32 124 169 124 C168.97679687 123.27554688 168.95359375 122.55109375 168.9296875 121.8046875 C168.82879017 116.39947341 168.96472577 112.08818558 171 107 C171 106.01 171 105.02 171 104 C171.66 103.67 172.32 103.34 173 103 C173.38133299 101.0085944 173.71325582 99.00720923 174 97 C174.33 96.34 174.66 95.68 175 95 C175.66 95 176.32 95 177 95 C176.67 94.01 176.34 93.02 176 92 C177.3125 89.3125 177.3125 89.3125 179 87 C179.66 87 180.32 87 181 87 C180.67 86.01 180.34 85.02 180 84 C181.28479041 82.49410612 182.57804082 80.99542625 183.875 79.5 C184.59429688 78.6646875 185.31359375 77.829375 186.0546875 76.96875 C186.69664062 76.3190625 187.33859375 75.669375 188 75 C188.66 75 189.32 75 190 75 C190 74.34 190 73.68 190 73 C192.53563658 70.73603877 194.65750371 69.59687434 198 69 C198 68.34 198 67.68 198 67 C198.95712891 66.92652344 198.95712891 66.92652344 199.93359375 66.8515625 C201.17302734 66.73941406 201.17302734 66.73941406 202.4375 66.625 C203.26121094 66.55539063 204.08492187 66.48578125 204.93359375 66.4140625 C205.61550781 66.27742188 206.29742188 66.14078125 207 66 C207.33 65.34 207.66 64.68 208 64 C210.97 64 213.94 64 217 64 C217 64.66 217 65.32 217 66 C218.11375 65.979375 219.2275 65.95875 220.375 65.9375 C224 66 224 66 226 67 C226 67.66 226 68.32 226 69 C227.65 69.33 229.3 69.66 231 70 C231.33 70.99 231.66 71.98 232 73 C232.66 73 233.32 73 234 73 C234 73.66 234 74.32 234 75 C234.639375 74.360625 235.27875 73.72125 235.9375 73.0625 C239.52732511 70.64486268 241.88205432 70.45540826 246.109375 70.2734375 C246.73328125 70.18320313 247.3571875 70.09296875 248 70 C248.33 69.34 248.66 68.68 249 68 C249 68.66 249 69.32 249 70 C250.670625 69.7834375 250.670625 69.7834375 252.375 69.5625 C257.38403732 69.67111362 260.86854949 71.29512301 264.88769531 74.22924805 C269.6225295 80.44002397 268.021793 89.19150272 267.6875 96.625 C267.6458681 98.42958884 267.6087154 100.23428689 267.57617188 102.0390625 C267.29264176 114.62762487 267.29264176 114.62762487 266.46435547 118.51196289 C265.77591449 122.20066007 265.99234859 125.85077157 266.12109375 129.58203125 C266.14470474 130.39621017 266.16831573 131.2103891 266.19264221 132.04924011 C266.26891589 134.63718699 266.35309518 137.22480682 266.4375 139.8125 C266.49075708 141.57224988 266.5434972 143.33201549 266.59570312 145.09179688 C266.72448159 149.39473643 266.86034838 153.69740017 267 158 C269.10047011 154.51747826 271.11943456 151.01055385 273.0625 147.4375 C273.82240234 146.04337891 273.82240234 146.04337891 274.59765625 144.62109375 C275.7697693 142.43031977 276.9036676 140.22938407 278 138 C278.66 138 279.32 138 280 138 C280.19335938 137.21753906 280.38671875 136.43507812 280.5859375 135.62890625 C280.97652344 134.11103516 280.97652344 134.11103516 281.375 132.5625 C281.63023437 131.55316406 281.88546875 130.54382813 282.1484375 129.50390625 C283 127 283 127 285 126 C285.3548954 124.00371336 285.68578929 122.00309329 286 120 C287.52542373 116.23728814 287.52542373 116.23728814 290 115 C289.79375 114.46375 289.5875 113.9275 289.375 113.375 C288.67812295 108.96144535 290.59965898 105.60051153 293 102 C292.505 101.401875 292.01 100.80375 291.5 100.1875 C290 98 290 98 290 95 C289.34 95 288.68 95 288 95 C288 94.34 288 93.68 288 93 C287.34 93 286.68 93 286 93 C284.47996286 87.10985609 284.32592052 80.85927818 286 75 C286.66 75 287.32 75 288 75 C288.103125 74.236875 288.20625 73.47375 288.3125 72.6875 C289.04711194 69.81583516 289.6716065 68.76957906 292 67 C292.66 67 293.32 67 294 67 C294.185625 66.360625 294.37125 65.72125 294.5625 65.0625 C296 63 296 63 299.1875 62.3125 C300.445625 62.209375 301.70375 62.10625 303 62 C304.216875 61.773125 305.43375 61.54625 306.6875 61.3125 C310.1821662 60.98281451 311.23197712 60.97011655 314 63 C316.75 65.375 316.75 65.375 319 68 C319 69.32 319 70.64 319 72 C319.66 72 320.32 72 321 72 C320.34 73.98 319.68 75.96 319 78 C319.66 78.33 320.32 78.66 321 79 C320.34 79 319.68 79 319 79 C319.33 79.99 319.66 80.98 320 82 C320.99 82 321.98 82 323 82 C323 81.34 323 80.68 323 80 C324.010625 80.04125 325.02125 80.0825 326.0625 80.125 C330.0630683 79.99799783 333.18257199 79.13108978 337 78 C339.9375 77.875 339.9375 77.875 342 78 C342.33 77.34 342.66 76.68 343 76 C343.66 76 344.32 76 345 76 C345 76.66 345 77.32 345 78 C347.31 78 349.62 78 352 78 C352.33 77.34 352.66 76.68 353 76 C353.33 76.66 353.66 77.32 354 78 C355.36125 78.3403125 355.36125 78.3403125 356.75 78.6875 C360.48784811 80.19701558 362.03325636 81.607781 364.23046875 84.9140625 C365.64883369 88.75876745 364.32838162 92.26868603 363 96 C363.66 96.33 364.32 96.66 365 97 C364.71125 97.66 364.4225 98.32 364.125 99 C362.24359293 104.01708552 361 108.62462406 361 114 C360.34 114 359.68 114 359 114 C359.01160156 114.69867188 359.02320313 115.39734375 359.03515625 116.1171875 C359.04869141 117.48230469 359.04869141 117.48230469 359.0625 118.875 C359.07410156 119.77992187 359.08570313 120.68484375 359.09765625 121.6171875 C359 124 359 124 358 126 C356.39408018 135.83350903 355.66836356 145.07857688 357 155 C357.16851735 156.62480912 357.33532001 158.24979747 357.5 159.875 C357.87444753 166.52212653 357.87444753 166.52212653 361 172 C360.67 172.66 360.34 173.32 360 174 C360.66 174 361.32 174 362 174 C362.165 174.639375 362.33 175.27875 362.5 175.9375 C363.97481752 178.44183807 363.97481752 178.44183807 367.875 178.875 C371.14164408 179.12354901 373.315893 179.06469769 376 177 C376.66 176.01 377.32 175.02 378 174 C378.66 174 379.32 174 380 174 C380.144375 172.783125 380.28875 171.56625 380.4375 170.3125 C380.7281298 167.92006919 381.07816074 165.66390884 381.625 163.3125 C382.14230953 161.02628911 382.14230953 161.02628911 381.53173828 158.89453125 C380.82593927 155.05249584 380.8572127 151.26646109 380.8671875 147.375 C380.86623077 146.5504834 380.86527405 145.7259668 380.86428833 144.87646484 C380.86360976 143.13834557 380.86544146 141.40022373 380.86962891 139.66210938 C380.87498173 137.00905641 380.86967295 134.35617273 380.86328125 131.703125 C380.86394209 130.01041629 380.86522337 128.31770769 380.8671875 126.625 C380.86516327 125.83528809 380.86313904 125.04557617 380.86105347 124.23193359 C380.87747019 120.35569789 381.08409833 116.76886321 382 113 C382.33944795 111.00102872 382.67421616 109.00124361 383 107 C383.66 107 384.32 107 385 107 C384.87625 105.7625 384.87625 105.7625 384.75 104.5 C385.03062625 100.57123246 386.1336758 98.30978299 388.02734375 94.9296875 C389.08873252 93.03070388 389.08873252 93.03070388 389.44140625 90.8828125 C390 89 390 89 393 87 C394.20450304 84.44816596 394.20450304 84.44816596 395 82 C395.66 82 396.32 82 397 82 C397.33 80.68 397.66 79.36 398 78 C398.66 78 399.32 78 400 78 C400.33 76.68 400.66 75.36 401 74 C401.639375 73.896875 402.27875 73.79375 402.9375 73.6875 C403.618125 73.460625 404.29875 73.23375 405 73 C405.33 72.01 405.66 71.02 406 70 C407.75 68.9375 407.75 68.9375 410 68 C410.825 67.62875 411.65 67.2575 412.5 66.875 C415 66 415 66 419 66 C419 65.34 419 64.68 419 64 C422.63 64 426.26 64 430 64 C430 64.66 430 65.32 430 66 C431.11375 65.979375 432.2275 65.95875 433.375 65.9375 C437 66 437 66 439 67 C439 67.66 439 68.32 439 69 C439.763125 69.268125 440.52625 69.53625 441.3125 69.8125 C444 71 444 71 445.5625 72.625 C447.1502231 74.4608151 447.1502231 74.4608151 451 74 C451.33 73.01 451.66 72.02 452 71 C452.66 71 453.32 71 454 71 C454.33 70.34 454.66 69.68 455 69 C457.31 69.33 459.62 69.66 462 70 C462.33 69.34 462.66 68.68 463 68 C463 68.66 463 69.32 463 70 C464.258125 69.938125 465.51625 69.87625 466.8125 69.8125 C470.75892857 69.8125 470.75892857 69.8125 472.6875 71.3125 C473.3371875 72.1478125 473.3371875 72.1478125 474 73 C474.84134491 73.35944199 475.68268982 73.71888397 476.54953003 74.08921814 C479 76 479 76 479.58108521 79.6342926 C479.5864452 81.17632336 479.56393631 82.71859519 479.52001953 84.26000977 C479.51388641 85.52404381 479.51388641 85.52404381 479.50762939 86.81361389 C479.48881481 89.60692937 479.43526863 92.39853771 479.3828125 95.19140625 C479.3658613 97.13612294 479.351566 99.08086445 479.33981323 101.02561951 C479.30366919 106.15631212 479.24021374 111.28625941 479.16845703 116.41656494 C479.05537403 124.60285295 478.96983134 132.78918311 478.91006088 140.97602654 C478.88330238 143.82671689 478.83666231 146.67659738 478.7883606 149.5269928 C478.66613899 159.57998431 478.79785729 168.16752578 483.75 177.1875 C485.98142731 179.38959183 485.98142731 179.38959183 489.5625 178.875 C492.94991079 178.05693803 492.94991079 178.05693803 496 177 C497.16666667 175.08333333 497.16666667 175.08333333 498 173 C498.33 172.34 498.66 171.68 499 171 C499.66 171 500.32 171 501 171 C501.103125 169.948125 501.20625 168.89625 501.3125 167.8125 C502 164 502 164 503.5 161.5625 C506.66120068 156.16211551 506.17275017 148.93978988 506.31640625 142.8046875 C506.33705139 142.0305249 506.35769653 141.2563623 506.37896729 140.45874023 C506.44440266 137.93091453 506.50338665 135.40298069 506.5625 132.875 C506.59626236 131.57323822 506.59626236 131.57323822 506.63070679 130.24517822 C506.89113242 120.20163228 507.03474592 110.17171574 506.921875 100.125 C506.91385361 99.25674591 506.90583221 98.38849182 506.89756775 97.493927 C506.85772867 93.33195803 506.79687685 89.17225113 506.69946289 85.01123047 C506.6803697 83.50489253 506.66201889 81.99854493 506.64453125 80.4921875 C506.61721924 79.18620605 506.58990723 77.88022461 506.56176758 76.53466797 C507.07887997 72.36377478 508.3510049 70.22345386 511 67 C513.18359375 66.34375 513.18359375 66.34375 515.4375 66.5 C516.22125 66.55027344 517.005 66.60054688 517.8125 66.65234375 C520.40311898 67.06406712 522.61807866 67.91730848 525 69 C525.66 68.67 526.32 68.34 527 68 C527.33 68.66 527.66 69.32 528 70 C528.94875 70.28875 529.8975 70.5775 530.875 70.875 C534.42304259 72.15229533 535.1784588 72.7781178 537 76 C537.43237305 79.20800781 537.43237305 79.20800781 537.51171875 82.953125 C537.52966995 83.61334656 537.54762115 84.27356812 537.56611633 84.95379639 C537.62008809 87.05246689 537.65407043 89.15091177 537.6875 91.25 C537.72068495 92.67711464 537.75517571 94.10419956 537.79101562 95.53125 C537.8758047 99.02061652 537.94267888 102.51006191 538 106 C540.36002596 101.53168419 541.35099118 98.00663949 542 93 C543.47540984 89.26229508 543.47540984 89.26229508 546 88 C545.67 87.01 545.34 86.02 545 85 C545.33 84.34 545.66 83.68 546 83 C546.66 83 547.32 83 548 83 C548.09796875 82.40832031 548.1959375 81.81664063 548.296875 81.20703125 C549.246509 76.18870677 550.11085299 72.57381077 554 69 C558.08843696 66.51487165 560.87052372 65.68648607 565.5 66.625 C570.23915412 67.92928002 574.60642143 69.80321072 579 72 C579 72.66 579 73.32 579 74 C579.99 74.33 580.98 74.66 582 75 C587.20370006 82.49945009 587.15558005 90.22875282 587.09765625 99.09375 C587.0962413 99.92588013 587.09482635 100.75801025 587.09336853 101.61535645 C587.08782167 104.2436093 587.07527945 106.87177338 587.0625 109.5 C587.05747812 111.29426959 587.05291642 113.08854054 587.04882812 114.8828125 C587.03786972 119.25524195 587.02064248 123.62760598 587 128 C587.66 128.33 588.32 128.66 589 129 C588.938125 127.453125 588.938125 127.453125 588.875 125.875 C588.99650648 122.10829914 589.72501053 119.50622105 591 116 C591 115.01 591 114.02 591 113 C591.66666667 111.33333333 592.33333333 109.66666667 593 108 C593.34731477 106.58669607 593.67998814 105.16973517 594 103.75 C594.33 102.5125 594.66 101.275 595 100 C595.66 99.67 596.32 99.34 597 99 C597.144375 97.9275 597.28875 96.855 597.4375 95.75 C598.00713896 91.95240691 598.99198108 90.17936329 601 87 C601.64767793 84.42938689 601.64767793 84.42938689 602 82 C602.33 81.01 602.66 80.02 603 79 C603.66 79 604.32 79 605 79 C604.9071875 77.8553125 604.9071875 77.8553125 604.8125 76.6875 C605 74 605 74 606.375 72.1875 C608 71 608 71 610 71 C610 70.34 610 69.68 610 69 C614.13410434 66.99558578 617.42495281 66.59151364 622 67 C624.625 68.4375 624.625 68.4375 627 70 C627.825 70.165 628.65 70.33 629.5 70.5 C634.77084717 71.55416943 638.74197116 74.83696314 642 79 C643.47313422 87.45167539 643.1271242 96.0765384 643.09765625 104.62890625 C643.09578803 106.23030045 643.09436603 107.83169523 643.09336853 109.43309021 C643.08957519 113.62022518 643.07977257 117.8073247 643.06866455 121.9944458 C643.05838152 126.27819337 643.05385623 130.56194674 643.04882812 134.84570312 C643.03814703 143.2304849 643.02110946 151.61523802 643 160 C643.66 160 644.32 160 645 160 C644.67 160.99 644.34 161.98 644 163 C644.53286546 165.21250496 644.53286546 165.21250496 645.4375 167.5 C646.47576279 170.29353218 647 171.97909181 647 175 C647.928125 175.433125 647.928125 175.433125 648.875 175.875 C651 177 651 177 653 179 C654.98491642 178.73323796 654.98491642 178.73323796 657 178 C657.99 177.67 658.98 177.34 660 177 C661.05369534 173.89745262 661.82552603 170.82875138 662.5 167.625 C662.665 167.08875 662.83 166.5525 663 166 C663.66 165.67 664.32 165.34 665 165 C664.87625 163.7934375 664.87625 163.7934375 664.75 162.5625 C665.07563192 157.92224508 666.51582999 153.94642393 669 150 C672.30323986 148.89892005 673.70504769 149.13290729 677 150 C678.6387674 151.6387674 678.12995732 153.51414466 678.1328125 155.76953125 C678.13410156 156.74083984 678.13539063 157.71214844 678.13671875 158.71289062 C678.13285156 159.73576172 678.12898438 160.75863281 678.125 161.8125 C678.12886719 162.82376953 678.13273437 163.83503906 678.13671875 164.87695312 C678.13542969 165.85212891 678.13414062 166.82730469 678.1328125 167.83203125 C678.13112061 169.17358276 678.13112061 169.17358276 678.12939453 170.54223633 C678.00862026 172.83626391 677.64445753 174.80199665 677 177 C676.34 177 675.68 177 675 177 C674.814375 178.134375 674.62875 179.26875 674.4375 180.4375 C672.64194839 187.51925601 667.91370566 193.03138094 661.875 197 C658.90265793 198.65382704 656.43237647 199.7488505 653 200 C652.35546875 200.07347656 651.7109375 200.14695313 651.046875 200.22265625 C644.34749768 200.67943198 639.70120773 198.33264753 634 195 C634 194.34 634 193.68 634 193 C633.41476562 192.92265625 632.82953125 192.8453125 632.2265625 192.765625 C629.25554632 191.74401242 628.24981768 190.24425083 626.375 187.75 C625.78460937 186.98171875 625.19421875 186.2134375 624.5859375 185.421875 C622.30582903 181.93993596 621 179.186992 621 175 C620.34 175 619.68 175 619 175 C618.855625 174.2575 618.71125 173.515 618.5625 172.75 C618.24503434 171.19794566 617.9006042 169.64919128 617.46875 168.125 C616.94914436 165.76945441 616.90207031 163.65921905 616.9375 161.25 C616.94652344 160.45078125 616.95554687 159.6515625 616.96484375 158.828125 C616.98224609 157.92320312 616.98224609 157.92320312 617 157 C616.34 156.67 615.68 156.34 615 156 C615.66 156 616.32 156 617 156 C616.67 155.030625 616.34 154.06125 616 153.0625 C614.90901629 149.31653495 614.87140257 145.89381441 615.02734375 142.015625 C615.09909335 139.79172983 615.09909335 139.79172983 614 137 C613.85013589 135.0093556 613.75171962 133.01464609 613.68359375 131.01953125 C613.64169922 129.85615234 613.59980469 128.69277344 613.55664062 127.49414062 C613.49766602 125.67172852 613.49766602 125.67172852 613.4375 123.8125 C613.37272461 121.97268555 613.37272461 121.97268555 613.30664062 120.09570312 C613.2004691 117.06391619 613.09842048 114.03204685 613 111 C610.16778263 117.31211711 610.16778263 117.31211711 609 124 C608.34 124.33 607.68 124.66 607 125 C606.64820803 127.3306218 606.31669821 129.66435067 606 132 C605.34786461 133.34050052 604.68620031 134.67661368 604 136 C604.33 136.66 604.66 137.32 605 138 C604.34 138 603.68 138 603 138 C603.061875 139.794375 603.061875 139.794375 603.125 141.625 C603.1384922 145.45678587 602.26103262 148.37453122 601 152 C600.83201531 155.25044709 600.83201531 155.25044709 601 158 C600.34 158 599.68 158 599 158 C599.01160156 158.96421875 599.02320313 159.9284375 599.03515625 160.921875 C599.04869141 162.81679688 599.04869141 162.81679688 599.0625 164.75 C599.07410156 166.00296875 599.08570313 167.2559375 599.09765625 168.546875 C599.01875951 171.33666356 598.68004152 173.35350507 598 176 C598.12453002 177.48111231 598.27111397 178.96050404 598.4375 180.4375 C598.45595506 183.23344191 598.39894659 184.51364376 596.609375 186.6953125 C591.0739623 190.63310609 585.57416037 190.54381841 579 190 C578.67 189.34 578.34 188.68 578 188 C577.13375 187.62875 577.13375 187.62875 576.25 187.25 C571.18337683 184.43520935 568.17368916 179.21685397 566 174 C564.78373031 169.02435127 564.89821897 164.08905159 565 159 C564.34 158.67 563.68 158.34 563 158 C563.061875 156.576875 563.061875 156.576875 563.125 155.125 C563.13684877 152.13614747 562.70898871 149.5546158 562 146.65625 C560.60312689 139.9148189 560.7832072 133.23121631 560.875 126.375 C560.88402344 125.08464844 560.89304687 123.79429688 560.90234375 122.46484375 C560.9257152 119.30969751 560.95847909 116.15495074 561 113 C560.34 113 559.68 113 559 113 C559 111.68 559 110.36 559 109 C559.66 109 560.32 109 561 109 C560.67 108.01 560.34 107.02 560 106 C559.34 106 558.68 106 558 106 C558 106.99 558 107.98 558 109 C557.34 109 556.68 109 556 109 C555.814375 110.299375 555.814375 110.299375 555.625 111.625 C555.01533133 114.91721082 554.23060041 117.88730484 553 121 C552.34 121.33 551.68 121.66 551 122 C550.855625 123.051875 550.71125 124.10375 550.5625 125.1875 C550 129 550 129 548.5 131.9375 C546.63490567 135.74540092 546.42056743 138.79432568 546 143 C545.67 143.66 545.34 144.32 545 145 C544.9603287 146.66619446 544.95615553 148.33391013 545 150 C544.34 150 543.68 150 543 150 C543.00523682 150.57967529 543.01047363 151.15935059 543.01586914 151.7565918 C543.03674334 154.4002167 543.04969327 157.04382421 543.0625 159.6875 C543.07087891 160.59951172 543.07925781 161.51152344 543.08789062 162.45117188 C543.09111328 163.33740234 543.09433594 164.22363281 543.09765625 165.13671875 C543.10289307 165.94842529 543.10812988 166.76013184 543.11352539 167.59643555 C542.99287852 170.15077636 542.50806297 172.49706102 542 175 C541.93589099 176.3658425 541.91371792 177.73442311 541.9375 179.1015625 C541.94523438 179.83890625 541.95296875 180.57625 541.9609375 181.3359375 C541.97382812 182.09132812 541.98671875 182.84671875 542 183.625 C542.1346463 191.59606109 542.1346463 191.59606109 541 195 C540.34 195 539.68 195 539 195 C538.773125 195.639375 538.54625 196.27875 538.3125 196.9375 C537 199 537 199 534.82421875 199.6171875 C531.68949048 200.04208843 528.66358822 200.1690211 525.5 200.1875 C524.3965625 200.20167969 523.293125 200.21585938 522.15625 200.23046875 C519.01747977 200.00127637 516.82816786 199.33493744 514 198 C514 197.34 514 196.68 514 196 C512.68 195.67 511.36 195.34 510 195 C509.67 193.35 509.34 191.7 509 190 C508.34 190 507.68 190 507 190 C507.33 189.01 507.66 188.02 508 187 C507.34 187 506.68 187 506 187 C505.34 187.825 504.68 188.65 504 189.5 C503.34 190.325 502.68 191.15 502 192 C501.34 192 500.68 192 500 192 C499.7525 192.61875 499.505 193.2375 499.25 193.875 C497.7301188 196.45879805 496.76757105 196.92372237 494 198 C493.13375 198.37125 492.2675 198.7425 491.375 199.125 C485.24471646 200.71433277 478.72450066 201.05306702 473 198 C473 197.34 473 196.68 473 196 C472.113125 195.938125 471.22625 195.87625 470.3125 195.8125 C466.20860192 194.80588349 464.63144967 193.2506143 462 190 C462 189.01 462 188.02 462 187 C461.01 187 460.02 187 459 187 C458.71125 186.2575 458.4225 185.515 458.125 184.75 C457.17631737 182.43099801 456.13440221 180.23067324 455 178 C454.36384766 178.87011719 454.36384766 178.87011719 453.71484375 179.7578125 C449.98164057 184.72994685 446.20887671 189.4953468 441 193 C440.34 193 439.68 193 439 193 C438.4121875 193.680625 438.4121875 193.680625 437.8125 194.375 C435.20751483 196.71050395 432.34189061 197.10485073 429 198 C427.515 198.99 427.515 198.99 426 200 C416.716073 201.16049087 408.94100563 200.00747263 401 195 C398.0625 192.375 398.0625 192.375 396 190 C395.236875 189.46375 394.47375 188.9275 393.6875 188.375 C393.130625 187.92125 392.57375 187.4675 392 187 C392 186.01 392 185.02 392 184 C390.68 184 389.36 184 388 184 C386.41751179 185.61358339 386.41751179 185.61358339 385.125 187.75 C382.48517339 191.50794866 380.03535556 193.69408254 376 196 C374.948125 196.7425 373.89625 197.485 372.8125 198.25 C367.11768607 201.46440608 360.40107321 200.6511385 354.3125 199 C353.549375 198.67 352.78625 198.34 352 198 C352 197.34 352 196.68 352 196 C350.02 195.34 348.04 194.68 346 194 C346 193.34 346 192.68 346 192 C345.40316406 191.89042969 344.80632813 191.78085938 344.19140625 191.66796875 C339.45189087 190.22330363 336.58109757 185.96849595 334.125 181.875 C333 179 333 179 333 175 C332.34 175 331.68 175 331 175 C329.49264892 170.2769666 328.66282177 165.85917241 328.24609375 160.91796875 C328.0966996 158.91861024 328.0966996 158.91861024 327 157 C327 154.66666667 327 152.33333333 327 150 C326.814375 148.80375 326.62875 147.6075 326.4375 146.375 C326.00763973 143.05893508 326.23770439 141.20164155 327 138 C327.26943145 135.69758579 327.49823086 133.39351282 327.71875 131.0859375 C328 129 328 129 329 126 C328.34 126 327.68 126 327 126 C327 125.34 327 124.68 327 124 C327.66 124 328.32 124 329 124 C328.97679687 123.27554688 328.95359375 122.55109375 328.9296875 121.8046875 C328.82849338 116.38357383 329.00526379 112.11151153 331 107 C331 105.68 331 104.36 331 103 C331.66 103 332.32 103 333 103 C333 102.34 333 101.68 333 101 C329.7 100.67 326.4 100.34 323 100 C323 100.66 323 101.32 323 102 C321.14375 102.0309375 321.14375 102.0309375 319.25 102.0625 C316.70796589 102.37744228 315.42463181 102.56699517 313.61328125 104.4140625 C311.41746352 108.1200151 310.42026783 111.69225472 310 116 C309.34 116 308.68 116 308 116 C308 117.32 308 118.64 308 120 C307.34 120 306.68 120 306 120 C306.33 120.99 306.66 121.98 307 123 C305.71810412 125.03335209 304.37843192 127.03081154 303 129 C302.30686092 130.65583225 301.63525576 132.32110979 301 134 C300.34 134.99 299.68 135.98 299 137 C298.67 138.03125 298.34 139.0625 298 140.125 C297 143 297 143 295 144 C294.28272222 145.64551962 293.61674772 147.31422289 293 149 C292.67 149.66 292.34 150.32 292 151 C291.34 151 290.68 151 290 151 C289.896875 151.721875 289.79375 152.44375 289.6875 153.1875 C288.93206053 156.27793421 287.84468685 158.41743841 286 161 C285.34 161 284.68 161 284 161 C284 161.66 284 162.32 284 163 C283.34 163 282.68 163 282 163 C281.67 164.65 281.34 166.3 281 168 C280.34 168 279.68 168 279 168 C278.773125 168.721875 278.54625 169.44375 278.3125 170.1875 C276.73456644 173.5687862 274.66453735 175.39742864 272 178 C266.66861003 183.98715932 266.3333548 188.29821455 266.58203125 196.15625 C266.59384933 197.21734985 266.60566742 198.27844971 266.61784363 199.3717041 C266.6588992 202.74866081 266.73371877 206.12373033 266.8125 209.5 C266.87537647 212.8760571 266.9309003 216.25194089 266.97502136 219.6282959 C267.00403504 221.72428271 267.04458148 223.82015133 267.0983429 225.91564941 C267.19210637 231.42934755 266.72585965 235.77260846 265 241 C264.92596322 243.33215844 264.90484114 245.66860788 265 248 C264.34 248 263.68 248 263 248 C263.0825 249.11375 263.165 250.2275 263.25 251.375 C263.26923553 256.78980266 261.17451143 261.13512588 259 266 C258.53013672 267.2375 258.53013672 267.2375 258.05078125 268.5 C256.94102627 271.14030925 255.62544278 273.41439696 254.0625 275.8125 C253.55847656 276.60269531 253.05445313 277.39289063 252.53515625 278.20703125 C251.77525391 279.09455078 251.77525391 279.09455078 251 280 C250.01 280 249.02 280 248 280 C247.7525 280.598125 247.505 281.19625 247.25 281.8125 C244.65456127 286.35451778 240.85439417 287.56574718 236 289 C236 289.66 236 290.32 236 291 C235.36191406 291.04898437 234.72382812 291.09796875 234.06640625 291.1484375 C232.82697266 291.26058594 232.82697266 291.26058594 231.5625 291.375 C230.73878906 291.44460938 229.91507813 291.51421875 229.06640625 291.5859375 C228.38449219 291.72257812 227.70257812 291.85921875 227 292 C226.67 292.66 226.34 293.32 226 294 C221.33333333 294 216.66666667 294 212 294 C212 293.34 212 292.68 212 292 C210.4221875 292.0928125 210.4221875 292.0928125 208.8125 292.1875 C204.77561309 291.98896458 203.24496852 291.25345036 200 289 C199.01 288.67 198.02 288.34 197 288 C195.64567325 286.68799596 194.31266518 285.35368596 193 284 C192.01 283.34 191.02 282.68 190 282 C190 281.01 190 280.02 190 279 C189.34 279 188.68 279 188 279 C188 278.01 188 277.02 188 276 C187.34 276 186.68 276 186 276 C185.87625 275.195625 185.7525 274.39125 185.625 273.5625 C185.41875 272.716875 185.2125 271.87125 185 271 C184.34 270.67 183.68 270.34 183 270 C183.33 269.01 183.66 268.02 184 267 C183.8658648 264.94175214 183.8658648 264.94175214 183.5 262.75 C182.95907367 258.56637994 183.20880666 255.13178742 184 251 C184.66 251 185.32 251 186 251 C186.061875 250.030625 186.12375 249.06125 186.1875 248.0625 C187.60965638 238.16749644 195.26092756 230.73907244 202 224 C202.90434686 222.90279531 203.80021996 221.79855154 204.6875 220.6875 C205.450625 219.800625 206.21375 218.91375 207 218 C207.66 218 208.32 218 209 218 C209.33 217.01 209.66 216.02 210 215 C210.99 214.67 211.98 214.34 213 214 C213.66 213.01 214.32 212.02 215 211 C215.99 211 216.98 211 218 211 C218.2475 210.4225 218.495 209.845 218.75 209.25 C220.18299988 206.67060021 221.78424676 204.93878408 224 203 C224.66 203 225.32 203 226 203 C226.33 202.01 226.66 201.02 227 200 C227.66 200 228.32 200 229 200 C229.226875 199.4225 229.45375 198.845 229.6875 198.25 C231.34848222 195.40260191 233.31524561 193.87932807 236 192 C236.66 192 237.32 192 238 192 C238 189.36 238 186.72 238 184 C237.38511719 184.5775 236.77023437 185.155 236.13671875 185.75 C234.92435547 186.86375 234.92435547 186.86375 233.6875 188 C232.88699219 188.7425 232.08648438 189.485 231.26171875 190.25 C229 192 229 192 226 192 C225.67 192.99 225.34 193.98 225 195 C222.890625 196.1328125 222.890625 196.1328125 220.25 197.125 C218.95835937 197.62386719 218.95835937 197.62386719 217.640625 198.1328125 C208.71394862 201.06435415 200.19780268 201.16264542 191.6796875 197.0703125 C190 196 190 196 189 194 C187.35636866 193.27840576 185.68949614 192.60648579 184 192 C184 191.34 184 190.68 184 190 C183.34 190 182.68 190 182 190 C182 189.01 182 188.02 182 187 C181.401875 186.71125 180.80375 186.4225 180.1875 186.125 C178 185 178 185 175 183 C174.67 183.66 174.34 184.32 174 185 C173.34 185 172.68 185 172 185 C172 185.66 172 186.32 172 187 C171.34 187 170.68 187 170 187 C169.773125 187.556875 169.54625 188.11375 169.3125 188.6875 C165.83946535 194.80665628 160.63241771 198.11231188 154 200 C148.14301359 200.64988479 143.40993334 200.43252398 138 198 C138 197.34 138 196.68 138 196 C136.02 195.67 134.04 195.34 132 195 C132 194.34 132 193.68 132 193 C130.68 192.34 129.36 191.68 128 191 C128 190.34 128 189.68 128 189 C127.34 189 126.68 189 126 189 C126 188.34 126 187.68 126 187 C125.34 187 124.68 187 124 187 C123.67 185.02 123.34 183.04 123 181 C122.34 181 121.68 181 121 181 C121 180.01 121 179.02 121 178 C119.85157077 179.28935919 118.70633773 180.58156579 117.5625 181.875 C116.92441406 182.59429687 116.28632813 183.31359375 115.62890625 184.0546875 C113.94985535 185.90750491 113.94985535 185.90750491 113 188 C112.01 188 111.02 188 110 188 C110 188.66 110 189.32 110 190 C108.34928604 191.02611949 106.68029994 192.02308143 105 193 C104.46375 193.556875 103.9275 194.11375 103.375 194.6875 C102 196 102 196 99 196 C98.34 196.66 97.68 197.32 97 198 C89.32594514 200.55801829 81.23800526 201.65667478 73.5625 198.65625 C70.64198948 197.19599474 67.80460188 195.67082665 65 194 C65 193.34 65 192.68 65 192 C64.01 191.67 63.02 191.34 62 191 C59.35703248 188.66796984 58.12775574 187.38326722 57 184 C56.319375 183.360625 55.63875 182.72125 54.9375 182.0625 C53 180 53 180 53 176 C52.34 175.67 51.68 175.34 51 175 C49.875 172.9375 49.875 172.9375 49 171 C48.34 172.65 47.68 174.3 47 176 C46.34 176 45.68 176 45 176 C44.6596875 177.2684375 44.6596875 177.2684375 44.3125 178.5625 C42.80761382 182.50386856 40.87296745 185.88761859 38 189 C37.34 189 36.68 189 36 189 C35.34 190.32 34.68 191.64 34 193 C33.01 193 32.02 193 31 193 C30.67 193.99 30.34 194.98 30 196 C27.6875 197.0625 27.6875 197.0625 25 198 C24.38253906 198.34160156 23.76507813 198.68320313 23.12890625 199.03515625 C18.63614323 201.07132591 13.25523522 200.8376588 8.67578125 199.13671875 C7.32847482 198.45185874 5.9973981 197.73334879 4.69140625 196.97265625 C2.85161268 195.8400965 2.85161268 195.8400965 0 195 C0 194.34 0 193.68 0 193 C-0.99 192.67 -1.98 192.34 -3 192 C-8 186.65116279 -8 186.65116279 -8 183 C-8.66 183 -9.32 183 -10 183 C-10.64690922 181.3962669 -11.29248764 179.79199694 -11.9375 178.1875 C-12.29714844 177.29417969 -12.65679687 176.40085938 -13.02734375 175.48046875 C-14.4849011 171.76340482 -15.10761244 168.98166028 -15 165 C-15.66 164.67 -16.32 164.34 -17 164 C-16.34 164 -15.68 164 -15 164 C-15.99 162.35 -16.98 160.7 -18 159 C-20.475 163.455 -20.475 163.455 -23 168 C-23.66 168 -24.32 168 -25 168 C-25.33 169.65 -25.66 171.3 -26 173 C-26.66 173 -27.32 173 -28 173 C-28.061875 173.556875 -28.12375 174.11375 -28.1875 174.6875 C-29.3476371 177.98942866 -31.45559795 179.62907991 -34 182 C-34.86625 182.928125 -35.7325 183.85625 -36.625 184.8125 C-39 187 -39 187 -42 187 C-42 187.66 -42 188.32 -42 189 C-45.73307009 192.41309265 -49.26967323 194.37592531 -54.1875 195.5 C-56.23284665 195.9037763 -56.23284665 195.9037763 -58 198 C-59.8125 198.5625 -59.8125 198.5625 -62 199 C-63.14879639 199.25583862 -63.14879639 199.25583862 -64.32080078 199.5168457 C-68.81891085 200.3280139 -73.3158412 200.18448867 -77.875 200.1875 C-78.84308594 200.19974609 -79.81117188 200.21199219 -80.80859375 200.22460938 C-86.30214921 200.23582071 -90.79766691 199.75492036 -96 198 C-96.66 198 -97.32 198 -98 198 C-98 197.34 -98 196.68 -98 196 C-99.0725 195.896875 -100.145 195.79375 -101.25 195.6875 C-105.01927411 194.99646641 -106.28194769 194.53684882 -109 192 C-110.3921875 190.88625 -110.3921875 190.88625 -111.8125 189.75 C-114 187 -114 187 -114 183.5625 C-112.18651831 177.10197147 -109.18528011 171.37921569 -104 167 C-100.3125 165.9375 -100.3125 165.9375 -97 166 C-96.01 166.66 -95.02 167.32 -94 168 C-94 168.66 -94 169.32 -94 170 C-93.4225 170.12375 -92.845 170.2475 -92.25 170.375 C-89.97664233 171.00648824 -88.0746471 171.88858191 -86 173 C-86 173.66 -86 174.32 -86 175 C-83.36 175.33 -80.72 175.66 -78 176 C-78 176.66 -78 177.32 -78 178 C-77.34 178 -76.68 178 -76 178 C-76 177.34 -76 176.68 -76 176 C-75.278125 175.979375 -74.55625 175.95875 -73.8125 175.9375 C-70.46885372 174.82295124 -68.87793573 173.23072891 -66.94140625 170.3046875 C-64.73177695 164.89522157 -65.0509062 157.50555716 -67 152 C-67.66 151.67 -68.32 151.34 -69 151 C-70.57548683 148.37418862 -71 147.12900213 -71 144 C-71.66 144 -72.32 144 -73 144 C-73 143.34 -73 142.68 -73 142 C-73.60199219 141.73703125 -74.20398438 141.4740625 -74.82421875 141.203125 C-77.1189858 139.93420534 -78.21138351 138.79869084 -79.8125 136.75 C-82.78714933 133.15626121 -85.96571179 129.42252657 -90 127 C-90.99 127.33 -91.98 127.66 -93 128 C-94.16953416 130.42383077 -94.16953416 130.42383077 -95 133 C-95.33 133.66 -95.66 134.32 -96 135 C-96.66 135 -97.32 135 -98 135 C-98.12375 135.556875 -98.2475 136.11375 -98.375 136.6875 C-99.05976855 139.22114364 -99.99133763 141.57921032 -101 144 C-101.66 144 -102.32 144 -103 144 C-103.309375 144.94875 -103.61875 145.8975 -103.9375 146.875 C-105 150 -105 150 -106 152 C-106.66 152 -107.32 152 -108 152 C-108.185625 153.1446875 -108.185625 153.1446875 -108.375 154.3125 C-109 157 -109 157 -111 160 C-111.66 160 -112.32 160 -113 160 C-113.1546875 161.3921875 -113.1546875 161.3921875 -113.3125 162.8125 C-114.06290143 166.29163389 -114.58064716 166.66285818 -117 169 C-118.27563587 171.01942356 -119.44744011 173.08011662 -120.62109375 175.16015625 C-122.20629072 177.27524909 -123.63834287 177.90052288 -126 179 C-126.35412344 180.32796291 -126.68521554 181.66216607 -127 183 C-128.5625 184.8125 -128.5625 184.8125 -131 187 C-131.65097656 187.59683594 -132.30195313 188.19367188 -132.97265625 188.80859375 C-138.72811871 194 -138.72811871 194 -141 194 C-141.33 194.66 -141.66 195.32 -142 196 C-147.5285393 199.99936885 -152.21262737 200.97774547 -159 200 C-161.30078125 198.9765625 -161.30078125 198.9765625 -163 198 C-163 197.34 -163 196.68 -163 196 C-163.5775 195.979375 -164.155 195.95875 -164.75 195.9375 C-168.42933295 194.40444461 -169.27283347 191.51601757 -171 188 C-171 187.34 -171 186.68 -171 186 C-171.66 185.34 -172.32 184.68 -173 184 C-173.5625 181.8125 -173.5625 181.8125 -174 179 C-174.17135468 177.92167908 -174.34270935 176.84335815 -174.51925659 175.73236084 C-174.96659752 172.25932776 -175.12685199 168.96781596 -175.12939453 165.46972656 C-175.13254669 164.21863098 -175.13569885 162.9675354 -175.13894653 161.67852783 C-175.1371572 160.33255986 -175.13510635 158.98659221 -175.1328125 157.640625 C-175.13348699 156.24534081 -175.13445822 154.85005674 -175.13571167 153.45477295 C-175.13717987 150.5432421 -175.1350611 147.63174209 -175.13037109 144.72021484 C-175.12465302 140.98886814 -175.12797143 137.25759305 -175.13394356 133.52624893 C-175.1375548 130.65066995 -175.13640835 127.775108 -175.13381577 124.8995285 C-175.13314916 123.52321107 -175.13396562 122.1468921 -175.13629532 120.77057648 C-175.13883334 118.85128306 -175.13427945 116.9319842 -175.12939453 115.01269531 C-175.12859894 113.92128235 -175.12780334 112.82986938 -175.12698364 111.7053833 C-175 109 -175 109 -174 106 C-174.08521741 104.10047654 -174.23729084 102.20336427 -174.4375 100.3125 C-174.59025391 98.82169922 -174.59025391 98.82169922 -174.74609375 97.30078125 C-174.82988281 96.54152344 -174.91367188 95.78226562 -175 95 C-175.66 95 -176.32 95 -177 95 C-177.18006592 95.88401489 -177.18006592 95.88401489 -177.36376953 96.78588867 C-178.01719593 99.05984262 -178.82877386 100.49870211 -180.1796875 102.42578125 C-180.61410156 103.05806641 -181.04851562 103.69035156 -181.49609375 104.34179688 C-182.4072922 105.64406209 -183.31874593 106.94614872 -184.23046875 108.24804688 C-187.06068027 112.36813356 -189.17956098 116.34039945 -191 121 C-191.66 121 -192.32 121 -193 121 C-193.103125 122.0725 -193.20625 123.145 -193.3125 124.25 C-194.00165514 128.00902802 -194.71107631 129.13884539 -197 132 C-197.35015049 133.66321482 -197.68197057 135.33034549 -198 137 C-198.495 137.969375 -198.99 138.93875 -199.5 139.9375 C-201.03647263 143.07446496 -201.56043279 145.55672351 -202 149 C-202.4375 151.8125 -202.4375 151.8125 -203 154 C-203.66 154.33 -204.32 154.66 -205 155 C-205.40197001 157.32249342 -205.72686657 159.65885633 -206 162 C-206.4375 164.875 -206.4375 164.875 -207 167 C-207.66 167.33 -208.32 167.66 -209 168 C-208.979375 169.051875 -208.95875 170.10375 -208.9375 171.1875 C-209.03672191 177.24003653 -210.54239591 181.55053007 -213 187 C-212.34 187.33 -211.68 187.66 -211 188 C-211.66 188 -212.32 188 -213 188 C-213.33 190.97 -213.66 193.94 -214 197 C-214.99 197.33 -215.98 197.66 -217 198 C-217 198.66 -217 199.32 -217 200 C-219.20770805 200.08165496 -221.41630425 200.13948488 -223.625 200.1875 C-224.85476562 200.22230469 -226.08453125 200.25710937 -227.3515625 200.29296875 C-231.29699155 199.97615164 -233.64586427 199.05559888 -237 197 C-238.1875 195.1875 -238.1875 195.1875 -239 193 C-239.7734375 191.6696875 -239.7734375 191.6696875 -240.5625 190.3125 C-243.66436408 183.16472626 -243.1552876 175.00671029 -243.17700195 167.32714844 C-243.18357315 166.29998718 -243.19014435 165.27282593 -243.19691467 164.21453857 C-243.2164837 160.84614981 -243.22826666 157.47780504 -243.23828125 154.109375 C-243.24235678 152.9544178 -243.2464323 151.7994606 -243.25063133 150.6095047 C-243.27141109 144.50887739 -243.28575373 138.40827212 -243.29516602 132.30761719 C-243.30627938 126.00705364 -243.3407589 119.70683849 -243.38033772 113.40639877 C-243.40643701 108.55600312 -243.41485137 103.70569194 -243.41844749 98.85523224 C-243.42332216 96.53157417 -243.43496104 94.20792009 -243.45348549 91.88433075 C-243.47775825 88.64102485 -243.47693464 85.3986418 -243.4699707 82.15527344 C-243.48278076 81.19621094 -243.49559082 80.23714844 -243.50878906 79.24902344 C-243.47529658 74.97665498 -243.37672037 72.62212929 -241.12297058 68.90020752 C-238.549616 66.59687474 -237.40780676 66.40146035 -234 66.5625 C-232.7315625 66.59537109 -232.7315625 66.59537109 -231.4375 66.62890625 C-228.90920001 67.01382372 -227.2503052 67.83265418 -225 69 C-224.01 69 -223.02 69 -222 69 C-222 69.66 -222 70.32 -222 71 C-220.68 71 -219.36 71 -218 71 C-218 71.66 -218 72.32 -218 73 C-217.34 73 -216.68 73 -216 73 C-216 73.66 -216 74.32 -216 75 C-215.34 75 -214.68 75 -214 75 C-213.67 89.85 -213.34 104.7 -213 120 C-212.01 119.505 -212.01 119.505 -211 119 C-210.61866701 117.0085944 -210.28674418 115.00720923 -210 113 C-209.67 112.34 -209.34 111.68 -209 111 C-208.34 111 -207.68 111 -207 111 C-207.3403125 110.13375 -207.3403125 110.13375 -207.6875 109.25 C-208 107 -208 107 -206.6875 105.125 C-206.130625 104.42375 -205.57375 103.7225 -205 103 C-204.30741771 101.00882592 -203.64252365 99.0078864 -203 97 C-202.02995879 94.98529902 -201.03755118 92.98077953 -200 91 C-199.34 91 -198.68 91 -198 91 C-197.9175 90.46375 -197.835 89.9275 -197.75 89.375 C-196.72912801 86.14223869 -194.9532953 83.75759337 -193 81 C-192.46375 80.21625 -191.9275 79.4325 -191.375 78.625 C-190.92125 78.08875 -190.4675 77.5525 -190 77 C-189.34 77 -188.68 77 -188 77 C-187.505 75.515 -187.505 75.515 -187 74 C-185.66666667 73.66666667 -184.33333333 73.33333333 -183 73 C-182.505 71.515 -182.505 71.515 -182 70 C-180.25 69.4375 -180.25 69.4375 -178 69 C-177.195625 68.67 -176.39125 68.34 -175.5625 68 C-170.47750801 66.01561288 -167.51844947 65.80754656 -162.375 67.8125 C-161.43398437 68.16957031 -160.49296875 68.52664062 -159.5234375 68.89453125 C-157 70 -157 70 -154 72 C-154 72.66 -154 73.32 -154 74 C-153.236875 74.103125 -152.47375 74.20625 -151.6875 74.3125 C-148.81583516 75.04711194 -147.76957906 75.6716065 -146 78 C-146 78.66 -146 79.32 -146 80 C-145.34 80.33 -144.68 80.66 -144 81 C-142.38736237 85.62391966 -142.81579401 90.60518652 -142.8125 95.4375 C-142.80025391 96.37916016 -142.78800781 97.32082031 -142.77539062 98.29101562 C-142.75732313 106.82489799 -142.75732313 106.82489799 -145 111 C-144.34 111 -143.68 111 -143 111 C-143 112.65 -143 114.3 -143 116 C-143.66 116 -144.32 116 -145 116 C-145 131.51 -145 147.02 -145 163 C-144.34 163.33 -143.68 163.66 -143 164 C-142.375 166.5625 -142.375 166.5625 -142 169 C-141.01 169.33 -140.02 169.66 -139 170 C-137.68141572 168.73548068 -136.37032369 167.46314525 -135.0625 166.1875 C-133.96615234 165.12595703 -133.96615234 165.12595703 -132.84765625 164.04296875 C-130.79165354 162.04463837 -130.79165354 162.04463837 -130 159 C-129.34 159 -128.68 159 -128 159 C-127.9175 158.278125 -127.835 157.55625 -127.75 156.8125 C-126.84960277 153.43601039 -125.19816861 151.679018 -123 149 C-122.65772583 147.66893378 -122.32248257 146.33599921 -122 145 C-121.01 144.34 -120.02 143.68 -119 143 C-117.78715124 139.94570927 -117.78715124 139.94570927 -117 137 C-116.34 137 -115.68 137 -115 137 C-114.896875 136.29875 -114.79375 135.5975 -114.6875 134.875 C-113.90640997 131.60862353 -112.57941257 128.9528148 -111 126 C-110.34 126 -109.68 126 -109 126 C-108.80664062 125.38511719 -108.61328125 124.77023438 -108.4140625 124.13671875 C-108.15367187 123.32847656 -107.89328125 122.52023438 -107.625 121.6875 C-107.36976563 120.88699219 -107.11453125 120.08648437 -106.8515625 119.26171875 C-106 117 -106 117 -104 114 C-104.78914921 112.39459341 -105.58141765 110.79071984 -106.375 109.1875 C-106.81585938 108.29417969 -107.25671875 107.40085937 -107.7109375 106.48046875 C-109.01866905 103.85443619 -109.01866905 103.85443619 -111 101 C-111.85046218 94.68228093 -110.94662841 89.67498806 -108 84 C-107.443125 82.865625 -106.88625 81.73125 -106.3125 80.5625 C-105.879375 79.716875 -105.44625 78.87125 -105 78 C-104.34 78 -103.68 78 -103 78 C-102.938125 77.4225 -102.87625 76.845 -102.8125 76.25 C-100.95143212 71.09627358 -94.67378707 68.33689353 -90 66 C-87.0625 65.75 -87.0625 65.75 -85 66 C-84.67 65.34 -84.34 64.68 -84 64 C-81.03 64 -78.06 64 -75 64 C-75 64.66 -75 65.32 -75 66 C-73.63875 66.0928125 -73.63875 66.0928125 -72.25 66.1875 C-69 67 -69 67 -66.625 68.8125 C-64.13562393 73.6955069 -64.23193322 78.62353255 -65 84 C-66.34375 86.99609375 -66.34375 86.99609375 -68 90 C-68.48339844 91.01320313 -68.96679688 92.02640625 -69.46484375 93.0703125 C-69.95082031 94.07835938 -70.43679688 95.08640625 -70.9375 96.125 C-71.42089844 97.13820313 -71.90429688 98.15140625 -72.40234375 99.1953125 C-73.98487782 101.973453 -75.6379694 103.86754041 -78 106 C-77.071875 106.804375 -76.14375 107.60875 -75.1875 108.4375 C-74.66542969 108.88996094 -74.14335937 109.34242187 -73.60546875 109.80859375 C-71.89287029 111.20871231 -71.89287029 111.20871231 -69 112 C-67.3125 113.4375 -67.3125 113.4375 -66 115 C-66 115.66 -66 116.32 -66 117 C-65.278125 117.061875 -64.55625 117.12375 -63.8125 117.1875 C-60.09410668 118.26170251 -58.6236779 120.18434566 -56 123 C-55.05125 123.763125 -54.1025 124.52625 -53.125 125.3125 C-49.87106729 127.95948153 -47.22453348 131.0395698 -44.515625 134.23046875 C-42.96792368 136.08344907 -42.96792368 136.08344907 -41 138 C-41 138.99 -41 139.98 -41 141 C-40.34 141 -39.68 141 -39 141 C-37.68373308 144.61973402 -37 147.09567131 -37 151 C-36.34 151.33 -35.68 151.66 -35 152 C-35 152.99 -35 153.98 -35 155 C-35.66 155 -36.32 155 -37 155 C-37 155.66 -37 156.32 -37 157 C-35.12119128 156.95231597 -35.12119128 156.95231597 -33 156 C-30.83973235 153.0929357 -30.83973235 153.0929357 -29 150 C-28.34 149.34 -27.68 148.68 -27 148 C-26.855625 147.360625 -26.71125 146.72125 -26.5625 146.0625 C-26 144 -26 144 -24.5 142.5625 C-22.51059599 140.49020415 -22.52161303 138.80367001 -22 136 C-21.50171188 135.09168427 -21.00342377 134.18336853 -20.49003601 133.24752808 C-18.83271558 129.63540422 -18.63635986 127.30367772 -18.65942383 123.35205078 C-18.65976372 121.40070724 -18.65976372 121.40070724 -18.66011047 119.40994263 C-18.67542699 118.00506235 -18.69107492 116.60018565 -18.70703125 115.1953125 C-18.7126323 113.74657634 -18.71689999 112.29783447 -18.71989441 110.84909058 C-18.73130323 107.05139245 -18.7607356 103.25404307 -18.79400635 99.45648193 C-18.82479322 95.5752026 -18.83841808 91.69386646 -18.85351562 87.8125 C-18.88560977 80.20815656 -18.93834455 72.60417174 -19 65 C-22.96 65 -26.92 65 -31 65 C-31 64.67 -31 64.34 -31 64 C-32.10859375 64.05800781 -33.2171875 64.11601563 -34.359375 64.17578125 C-35.82287452 64.22268829 -37.28641963 64.26818745 -38.75 64.3125 C-39.47960937 64.35439453 -40.20921875 64.39628906 -40.9609375 64.43945312 C-44.88369509 64.52860671 -46.58404857 64.39179099 -49.48828125 61.65625 C-51.37100117 58.34811165 -51.51716791 56.7679376 -51 53 C-50.16575841 50.25284777 -49.11568643 47.64271179 -48 45 C-47.62875 43.7934375 -47.62875 43.7934375 -47.25 42.5625 C-46 41 -46 41 -42.96484375 40.41015625 C-38.71843151 39.97087223 -34.57642289 39.8525386 -30.3125 39.875 C-29.56677734 39.87113281 -28.82105469 39.86726563 -28.05273438 39.86328125 C-24.4637444 39.86968444 -21.50621715 40.12344571 -18 41 C-17.01 32.42 -16.02 23.84 -15 15 C-15.66 15 -16.32 15 -17 15 C-17 14.34 -17 13.68 -17 13 C-16.34 13 -15.68 13 -15 13 C-15 9.7 -15 6.4 -15 3 C-9.8531808 -0.16727335 -5.841744 -0.35050464 0 0 Z M237 74 C236.67 74.99 236.34 75.98 236 77 C236.99 77.495 236.99 77.495 238 78 C237.67 76.68 237.34 75.36 237 74 Z M87.75 92.5 C85.80884589 94.76447082 85.80884589 94.76447082 86 97 C85.34 97 84.68 97 84 97 C82.75781941 99.30690682 81.8313924 101.5058228 81 104 C80 107 80 107 78.96875 108.8203125 C77.74555703 111.57249667 77.6498993 113.86951896 77.5 116.875 C77.20969618 121.67576509 76.66472131 126.31890734 75.875 131.0625 C74.89614412 137.59545662 75.18097133 143.47477158 76 150 C76.16945732 151.8539137 76.33629485 153.70806951 76.5 155.5625 C76.75281934 158.31191027 77.11700505 160.35101514 78 163 C78.12375 163.598125 78.2475 164.19625 78.375 164.8125 C79.66199384 169.31697842 81.63427027 172.78725799 85 176 C85.33 176.99 85.66 177.98 86 179 C90.5692287 180.88264434 95.50872094 179.61598695 100 178 C102.26866246 176.16620817 103.36968755 174.49641593 105 172 C105.66 171.01 106.32 170.02 107 169 C107 168.01 107 167.02 107 166 C107.66 166 108.32 166 109 166 C109.59732819 163.23735711 110 160.83967231 110 158 C110.66 157.67 111.32 157.34 112 157 C113.7873464 152.92882208 114.07033392 149.58420706 113.9375 145.17578125 C114.00563814 142.80372232 114.44918402 140.74404193 115 138.4375 C117.32588408 127.62213902 116.14063091 116.73440466 114 106 C113.88398438 104.99839844 113.76796875 103.99679688 113.6484375 102.96484375 C112.90630532 99.57160085 111.73585781 97.80893875 109.5625 95.125 C108.63630859 93.95324219 108.63630859 93.95324219 107.69140625 92.7578125 C107.13324219 92.17773438 106.57507813 91.59765625 106 91 C105.34 91 104.68 91 104 91 C104 90.34 104 89.68 104 89 C97.42202848 86.97600876 92.41600923 87.3155453 87.75 92.5 Z M215 90 C212.875 90.625 212.875 90.625 211 91 C211 91.99 211 92.98 211 94 C210.34 94 209.68 94 209 94 C209 94.66 209 95.32 209 96 C208.01 96.495 208.01 96.495 207 97 C206.34444881 99.52733235 206.34444881 99.52733235 206 102 C205.01 102.33 204.02 102.66 203 103 C202.23202221 104.77248957 202.23202221 104.77248957 201.875 106.875 C201.35581708 109.343396 200.80167444 111.59497667 200 114 C200.38932856 116.14255793 200.38932856 116.14255793 201 118 C200.34 118 199.68 118 199 118 C197.29724251 121.40551498 197.98801784 125.20964743 198.0625 128.95703125 C198.0042513 131.79301487 197.58884092 134.23697722 197 137 C196.64878052 142.75380148 197.18702342 148.30916394 198 154 C198.12375 155.299375 198.2475 156.59875 198.375 157.9375 C198.92864876 162.50283319 200.41751551 166.7004195 202 171 C202.66 171 203.32 171 204 171 C204.103125 171.598125 204.20625 172.19625 204.3125 172.8125 C205.09824033 175.31258286 205.96918853 176.37535082 208 178 C208.66 178 209.32 178 210 178 C210.33 178.66 210.66 179.32 211 180 C215.19148507 180.19495279 218.32702256 180.12646063 222 178 C224.27689206 175.02739092 225.81610467 172.55168598 227 169 C227.66 169 228.32 169 229 169 C229.29003906 167.96939453 229.29003906 167.96939453 229.5859375 166.91796875 C229.84632813 166.01691406 230.10671875 165.11585938 230.375 164.1875 C230.63023437 163.29417969 230.88546875 162.40085937 231.1484375 161.48046875 C232 159 232 159 234 156 C234.41596899 154.05154467 234.41596899 154.05154467 234.5625 152 C234.8035815 149.40222383 235.16030532 147.51908403 236 145 C236 144.13375 236 143.2675 236 142.375 C236 140 236 140 237 139 C239.07647726 125.38753797 238.80186467 111.94523311 234 99 C233.649375 98.05125 233.29875 97.1025 232.9375 96.125 C230.86656133 91.43087235 228.69385984 89.85983126 224 88 C218.94639778 87.36467745 218.94639778 87.36467745 215 90 Z M419.74609375 94.84375 C416.16095494 100.33369423 413.23589432 105.20612035 413.07421875 111.921875 C412.94941958 115.41625166 411.91683504 118.63827153 411 122 C411.66 122 412.32 122 413 122 C413 122.66 413 123.32 413 124 C412.34 124 411.68 124 411 124 C409.36244907 128.9126528 409.8154427 133.98116609 409.8125 139.125 C409.80025391 140.2284375 409.78800781 141.331875 409.77539062 142.46875 C409.76385174 148.94591095 410.30696702 154.75300238 412 161 C412.33986667 162.66534667 412.67702486 164.33129513 413 166 C413.66 166 414.32 166 415 166 C414.67 167.32 414.34 168.64 414 170 C414.99 170.33 415.98 170.66 417 171 C417.67441131 172.6635479 418.3400321 174.33066942 419 176 C420.58333333 178.41666667 420.58333333 178.41666667 423 180 C427.22664659 180.45285499 430.43437956 180.41952816 434 178 C436.35408411 175.92840598 438.2422011 173.59484599 440 171 C440 170.34 440 169.68 440 169 C440.99 168.505 440.99 168.505 442 168 C441.505 167.01 441.505 167.01 441 166 C441.66 166 442.32 166 443 166 C445.47264285 161.59224535 446.38732609 157.98891613 447 153 C447.9007736 149.62209899 448.89474895 146.31575314 450 143 C450.22993632 138.57128707 450.22838422 134.13998863 450.24023438 129.70605469 C450.24984328 127.53540278 450.2808294 125.36573834 450.3125 123.1953125 C450.37452072 115.08039056 449.80447601 107.70174756 447 100 C446.51708496 98.64551758 446.51708496 98.64551758 446.02441406 97.26367188 C445.21674201 94.84566819 445.21674201 94.84566819 443 94 C442.505 92.515 442.505 92.515 442 91 C433.70320424 85.79038406 425.74997796 87.26865865 419.74609375 94.84375 Z M614 104 C615 106 615 106 615 106 Z M536 113 C537 115 537 115 537 115 Z M-215 128 C-214 130 -214 130 -214 130 Z M587 131 C588 135 588 135 588 135 Z M49 168 C50 170 50 170 50 170 Z M175 179 C176 181 176 181 176 181 Z M239 213 C238.67 213.99 238.34 214.98 238 216 C237.01 216.33 236.02 216.66 235 217 C235 217.66 235 218.32 235 219 C234.34 219 233.68 219 233 219 C231.18932626 220.71331989 231.18932626 220.71331989 229.375 222.875 C228.74335937 223.59429687 228.11171875 224.31359375 227.4609375 225.0546875 C225.79982877 226.86106933 225.79982877 226.86106933 226 229 C225.34 229 224.68 229 224 229 C222.64613064 230.65002828 221.31321858 232.3174387 220 234 C219.34 234.33 218.68 234.66 218 235 C217.835 235.825 217.67 236.65 217.5 237.5 C217.335 238.325 217.17 239.15 217 240 C216.34 240.33 215.68 240.66 215 241 C214.34786708 243.02463255 214.34786708 243.02463255 214 245 C213.34 245 212.68 245 212 245 C212 245.99 212 246.98 212 248 C211.34 248 210.68 248 210 248 C209.896875 248.53625 209.79375 249.0725 209.6875 249.625 C209 252 209 252 207.4375 254.4375 C205.26108547 259.83122296 205.58688723 265.24819906 206 271 C206.33 271.66 206.66 272.32 207 273 C207.66 273 208.32 273 209 273 C209.268125 273.61875 209.53625 274.2375 209.8125 274.875 C210.95556848 277.2995233 210.95556848 277.2995233 214 279 C216.18336668 279.2786158 216.18336668 279.2786158 218.5 279.1875 C219.66015625 279.17783203 219.66015625 279.17783203 220.84375 279.16796875 C223.18348849 279.0730565 223.18348849 279.0730565 226 278 C226 277.34 226 276.68 226 276 C226.66 276 227.32 276 228 276 C231.8476538 272.45852554 234.34368806 269.25049554 235 264 C235.515625 262.88625 236.03125 261.7725 236.5625 260.625 C238.09925863 256.74969563 238.15553607 254.12170578 238 250 C238.31478446 248.66216607 238.64587656 247.32796291 239 246 C239 245.13375 239 244.2675 239 243.375 C239 241 239 241 240 239 C240.08510205 237.0406396 240.10717656 235.07837206 240.09765625 233.1171875 C240.09443359 231.95058594 240.09121094 230.78398437 240.08789062 229.58203125 C240.07951172 228.35871094 240.07113281 227.13539063 240.0625 225.875 C240.05798828 224.64394531 240.05347656 223.41289062 240.04882812 222.14453125 C240.0370133 219.09630608 240.02054028 216.04817686 240 213 C239.67 213 239.34 213 239 213 Z " fill="#202020" transform="translate(346,0)"/>
<path d="M0 0 C4.95 0 9.9 0 15 0 C15 0.66 15 1.32 15 2 C16.10601562 1.91298828 16.10601562 1.91298828 17.234375 1.82421875 C20.49059471 2.03118187 21.7106012 2.82071964 24.25 4.8125 C24.93578125 5.33457031 25.6215625 5.85664062 26.328125 6.39453125 C29.04151421 9.00014566 29.00225991 11.0877749 29.09765625 14.79296875 C29.09102785 16.25784438 29.07913087 17.72270378 29.0625 19.1875 C29.05798828 19.93708984 29.05347656 20.68667969 29.04882812 21.45898438 C29.03706354 23.30602383 29.01912865 25.15302213 29 27 C29.66 27 30.32 27 31 27 C31 60 31 93 31 127 C30.34 127 29.68 127 29 127 C29.00999275 127.9660038 29.00999275 127.9660038 29.02018738 128.95152283 C29.08681215 135.68418358 29.13191297 142.41674991 29.16479492 149.1496582 C29.17983529 151.65881152 29.20027272 154.16793874 29.22631836 156.67700195 C29.26291014 160.29384825 29.27977448 163.91034542 29.29296875 167.52734375 C29.30845261 168.64020248 29.32393646 169.75306122 29.33988953 170.89964294 C29.34114262 176.76392479 28.87309221 181.62362001 26.70088196 187.09742737 C25.63924362 189.9792879 25.41608744 192.96850581 25 196 C23.9375 198.4375 23.9375 198.4375 23 200 C22.34 200 21.68 200 21 200 C20.9175 200.9075 20.835 201.815 20.75 202.75 C19.89810964 206.44152488 18.79319037 207.55595843 16 210 C15.67 210.66 15.34 211.32 15 212 C14.34 212 13.68 212 13 212 C12.67 212.99 12.34 213.98 12 215 C10.66666667 215.33333333 9.33333333 215.66666667 8 216 C7.67 216.99 7.34 217.98 7 219 C5.109375 220.421875 5.109375 220.421875 2.75 221.75 C1.98171875 222.19859375 1.2134375 222.6471875 0.421875 223.109375 C-2.47660612 224.17526806 -4.07545258 223.85040031 -7 223 C-9.02637034 217.48376962 -9.01376544 214.70566874 -7 209 C-7 208.34 -7 207.68 -7 207 C-6.34 207 -5.68 207 -5 207 C-5.020625 205.741875 -5.04125 204.48375 -5.0625 203.1875 C-5.10886083 200.35948913 -4.91692961 198.75078884 -4 196 C-1.54404853 184.93015991 -1.58377921 173.29053834 -1 162 C-1.66 162 -2.32 162 -3 162 C-3 152.43 -3 142.86 -3 133 C-2.34 133 -1.68 133 -1 133 C-1 106.27 -1 79.54 -1 52 C-1.33 52 -1.66 52 -2 52 C-2.33 42.43 -2.66 32.86 -3 23 C-4.98 25.31 -6.96 27.62 -9 30 C-9.99 30.495 -9.99 30.495 -11 31 C-12.10524021 33.1560774 -13.13700139 35.35024223 -14.125 37.5625 C-14.66382813 38.76003906 -15.20265625 39.95757812 -15.7578125 41.19140625 C-16.16773438 42.11824219 -16.57765625 43.04507813 -17 44 C-17.66 44 -18.32 44 -19 44 C-19.185625 45.6396875 -19.185625 45.6396875 -19.375 47.3125 C-20 51 -20 51 -22 54 C-21.67 54.66 -21.34 55.32 -21 56 C-21.99 56.495 -21.99 56.495 -23 57 C-22.95875 57.886875 -22.9175 58.77375 -22.875 59.6875 C-23 63 -23 63 -24 65.25 C-25.52240926 69.43662548 -25.15413715 73.58996487 -25 78 C-25.66 78 -26.32 78 -27 78 C-27 80.31 -27 82.62 -27 85 C-26.34 85 -25.68 85 -25 85 C-25.02320312 85.59167969 -25.04640625 86.18335937 -25.0703125 86.79296875 C-25.17496809 91.37538832 -25.08892921 94.82214158 -23 99 C-22.71125 99.804375 -22.4225 100.60875 -22.125 101.4375 C-21.02440911 104.1567731 -21.02440911 104.1567731 -19 106.9375 C-17.01329506 109.97964195 -15.78722541 112.45748564 -15 116 C-17 119 -17 119 -19.20703125 119.65234375 C-26.31478154 120.43025345 -26.31478154 120.43025345 -29.6875 118.3125 C-30.450625 117.549375 -31.21375 116.78625 -32 116 C-33.14979908 115.32459355 -34.31810379 114.68002179 -35.5 114.0625 C-39.90068794 111.62194381 -43.37358264 108.87925209 -45 104 C-45.61875 103.46375 -46.2375 102.9275 -46.875 102.375 C-53.2108845 95.29371732 -52.42814858 85.57157449 -52.3125 76.625 C-52.31572266 75.35527344 -52.31894531 74.08554688 -52.32226562 72.77734375 C-52.26746348 63.40119522 -52.26746348 63.40119522 -50 60 C-50.33 59.34 -50.66 58.68 -51 58 C-50.01 57.505 -50.01 57.505 -49 57 C-48.60828247 55.34608154 -48.27942455 53.67654729 -48 52 C-47.67 51.01 -47.34 50.02 -47 49 C-46.34 49 -45.68 49 -45 49 C-44.505 46.03 -44.505 46.03 -44 43 C-43.34 43 -42.68 43 -42 43 C-41.90589844 42.28070313 -41.81179687 41.56140625 -41.71484375 40.8203125 C-40.88544095 37.54802387 -39.5564744 35.58614191 -37.5625 32.875 C-36.94503906 32.02679688 -36.32757813 31.17859375 -35.69140625 30.3046875 C-35.13324219 29.54414063 -34.57507813 28.78359375 -34 28 C-33.34 27.01 -32.68 26.02 -32 25 C-31.34 25 -30.68 25 -30 25 C-29.773125 24.443125 -29.54625 23.88625 -29.3125 23.3125 C-27.63281165 20.3530491 -25.45866715 18.33873216 -23 16 C-22.443125 15.401875 -21.88625 14.80375 -21.3125 14.1875 C-20 13 -20 13 -18 13 C-18 12.34 -18 11.68 -18 11 C-17.195625 10.71125 -16.39125 10.4225 -15.5625 10.125 C-12.8673532 9.26737432 -12.8673532 9.26737432 -12 7 C-10 6.33333333 -8 5.66666667 -6 5 C-5.67 4.34 -5.34 3.68 -5 3 C-3.66666667 2.66666667 -2.33333333 2.33333333 -1 2 C-0.67 1.34 -0.34 0.68 0 0 Z " fill="#202020" transform="translate(52,0)"/>
<path d="M0 0 C0.33 0 0.66 0 1 0 C1 7.59 1 15.18 1 23 C0.67 23 0.34 23 0 23 C0 15.41 0 7.82 0 0 Z " fill="#202020" transform="translate(102,151)"/>
<path d="M0 0 C0.33 0 0.66 0 1 0 C1 5.94 1 11.88 1 18 C0.67 18 0.34 18 0 18 C0 12.06 0 6.12 0 0 Z " fill="#202020" transform="translate(825,93)"/>
<path d="M0 0 C0.33 0 0.66 0 1 0 C1 4.62 1 9.24 1 14 C0.67 14 0.34 14 0 14 C0 9.38 0 4.76 0 0 Z " fill="#202020" transform="translate(757,128)"/>
<path d="M0 0 C0.33 0 0.66 0 1 0 C1 4.29 1 8.58 1 13 C0.67 13 0.34 13 0 13 C0 8.71 0 4.42 0 0 Z " fill="#202020" transform="translate(170,133)"/>
<path d="M0 0 C0.33 0 0.66 0 1 0 C1 3.96 1 7.92 1 12 C0.67 12 0.34 12 0 12 C0 8.04 0 4.08 0 0 Z " fill="#202020" transform="translate(361,70)"/>
<path d="M0 0 C3.3 0 6.6 0 10 0 C10 0.33 10 0.66 10 1 C6.7 1 3.4 1 0 1 C0 0.67 0 0.34 0 0 Z " fill="#202020" transform="translate(264,200)"/>
<path d="M0 0 C0.33 0 0.66 0 1 0 C1 3.3 1 6.6 1 10 C0.67 10 0.34 10 0 10 C0 6.7 0 3.4 0 0 Z " fill="#202020" transform="translate(989,89)"/>
<path d="M0 0 C0.33 0 0.66 0 1 0 C1 2.97 1 5.94 1 9 C0.67 9 0.34 9 0 9 C0 6.03 0 3.06 0 0 Z " fill="#202020" transform="translate(170,158)"/>
<path d="M0 0 C0.33 0 0.66 0 1 0 C1 2.97 1 5.94 1 9 C0.67 9 0.34 9 0 9 C0 6.03 0 3.06 0 0 Z " fill="#202020" transform="translate(757,143)"/>
<path d="M0 0 C0.99 1.485 0.99 1.485 2 3 C1.34 4.32 0.68 5.64 0 7 C0 4.69 0 2.38 0 0 Z " fill="#202020" transform="translate(933,121)"/>
<path d="M0 0 C0.33 0 0.66 0 1 0 C1 2.31 1 4.62 1 7 C0.67 7 0.34 7 0 7 C0 4.69 0 2.38 0 0 Z " fill="#202020" transform="translate(906,122)"/>
<path d="M0 0 C0.33 0 0.66 0 1 0 C1 1.98 1 3.96 1 6 C0.67 6 0.34 6 0 6 C0 4.02 0 2.04 0 0 Z " fill="#202020" transform="translate(81,169)"/>
<path d="M0 0 C0.33 0 0.66 0 1 0 C1 1.98 1 3.96 1 6 C0.67 6 0.34 6 0 6 C0 4.02 0 2.04 0 0 Z " fill="#202020" transform="translate(281,75)"/>
<path d="M0 0 C0.33 0 0.66 0 1 0 C1 1.65 1 3.3 1 5 C0.67 5 0.34 5 0 5 C0 3.35 0 1.7 0 0 Z " fill="#202020" transform="translate(825,158)"/>
<path d="M0 0 C0.33 0 0.66 0 1 0 C1 1.65 1 3.3 1 5 C0.67 5 0.34 5 0 5 C0 3.35 0 1.7 0 0 Z " fill="#202020" transform="translate(889,155)"/>
<path d="M0 0 C0.33 0 0.66 0 1 0 C1 1.65 1 3.3 1 5 C0.67 5 0.34 5 0 5 C0 3.35 0 1.7 0 0 Z " fill="#202020" transform="translate(989,152)"/>
<path d="M0 0 C0.33 0 0.66 0 1 0 C1 1.65 1 3.3 1 5 C0.67 5 0.34 5 0 5 C0 3.35 0 1.7 0 0 Z " fill="#202020" transform="translate(726,123)"/>
<path d="M0 0 C1.65 0 3.3 0 5 0 C5 0.33 5 0.66 5 1 C3.35 1 1.7 1 0 1 C0 0.67 0 0.34 0 0 Z " fill="#202020" transform="translate(28,120)"/>
<path d="M0 0 C1 4 1 4 1 4 Z " fill="#202020" transform="translate(133,191)"/>
<path d="M0 0 C1 4 1 4 1 4 Z " fill="#202020" transform="translate(545,155)"/>
<path d="M0 0 C1 4 1 4 1 4 Z " fill="#202020" transform="translate(726,151)"/>
<path d="M0 0 C1 4 1 4 1 4 Z " fill="#202020" transform="translate(794,139)"/>
<path d="M0 0 C1 4 1 4 1 4 Z " fill="#202020" transform="translate(630,83)"/>
<path d="" fill="#202020" transform="translate(0,0)"/>
<path d="" fill="#202020" transform="translate(0,0)"/>
<path d="" fill="#202020" transform="translate(0,0)"/>
<path d="" fill="#202020" transform="translate(0,0)"/>
<path d="" fill="#202020" transform="translate(0,0)"/>
<path d="" fill="#202020" transform="translate(0,0)"/>
<path d="" fill="#202020" transform="translate(0,0)"/>
<path d="" fill="#202020" transform="translate(0,0)"/>
<path d="" fill="#202020" transform="translate(0,0)"/>
<path d="" fill="#202020" transform="translate(0,0)"/>
<path d="" fill="#202020" transform="translate(0,0)"/>
<path d="" fill="#202020" transform="translate(0,0)"/>
<path d="" fill="#202020" transform="translate(0,0)"/>
<path d="" fill="#202020" transform="translate(0,0)"/>
<path d="" fill="#202020" transform="translate(0,0)"/>
<path d="" fill="#202020" transform="translate(0,0)"/>
<path d="" fill="#202020" transform="translate(0,0)"/>
<path d="" fill="#202020" transform="translate(0,0)"/>
<path d="M0 0 C2 1 2 1 2 1 Z " fill="#202020" transform="translate(686,77)"/>
<path d="M0 0 C2 1 2 1 2 1 Z " fill="#202020" transform="translate(874,69)"/>
<path d="M0 0 C2 1 2 1 2 1 Z " fill="#202020" transform="translate(598,69)"/>
<path d="M0 0 C2 1 2 1 2 1 Z " fill="#202020" transform="translate(476,69)"/>
<path d="" fill="#202020" transform="translate(0,0)"/>
<path d="" fill="#202020" transform="translate(0,0)"/>
<path d="" fill="#202020" transform="translate(0,0)"/>
<path d="" fill="#202020" transform="translate(0,0)"/>
<path d="" fill="#202020" transform="translate(0,0)"/>
<path d="" fill="#202020" transform="translate(0,0)"/>
<path d="" fill="#202020" transform="translate(0,0)"/>
<path d="" fill="#202020" transform="translate(0,0)"/>
<path d="" fill="#202020" transform="translate(0,0)"/>
<path d="" fill="#202020" transform="translate(0,0)"/>
<path d="" fill="#202020" transform="translate(0,0)"/>
<path d="" fill="#202020" transform="translate(0,0)"/>
<path d="" fill="#202020" transform="translate(0,0)"/>
<path d="" fill="#202020" transform="translate(0,0)"/>
<path d="" fill="#202020" transform="translate(0,0)"/>
<path d="" fill="#202020" transform="translate(0,0)"/>
<path d="" fill="#202020" transform="translate(0,0)"/>
<path d="" fill="#202020" transform="translate(0,0)"/>
<path d="" fill="#202020" transform="translate(0,0)"/>
<path d="" fill="#202020" transform="translate(0,0)"/>
<path d="" fill="#202020" transform="translate(0,0)"/>
<path d="" fill="#202020" transform="translate(0,0)"/>
<path d="" fill="#202020" transform="translate(0,0)"/>
<path d="" fill="#202020" transform="translate(0,0)"/>
<path d="" fill="#202020" transform="translate(0,0)"/>
<path d="" fill="#202020" transform="translate(0,0)"/>
<path d="" fill="#202020" transform="translate(0,0)"/>
<path d="" fill="#202020" transform="translate(0,0)"/>
<path d="" fill="#202020" transform="translate(0,0)"/>
<path d="" fill="#202020" transform="translate(0,0)"/>
<path d="" fill="#202020" transform="translate(0,0)"/>
<path d="" fill="#202020" transform="translate(0,0)"/>
<path d="" fill="#202020" transform="translate(0,0)"/>
<path d="" fill="#202020" transform="translate(0,0)"/>
<path d="" fill="#202020" transform="translate(0,0)"/>
<path d="" fill="#202020" transform="translate(0,0)"/>
<path d="" fill="#202020" transform="translate(0,0)"/>
<path d="" fill="#202020" transform="translate(0,0)"/>
<path d="" fill="#202020" transform="translate(0,0)"/>
<path d="" fill="#202020" transform="translate(0,0)"/>
<path d="" fill="#202020" transform="translate(0,0)"/>
<path d="" fill="#202020" transform="translate(0,0)"/>
<path d="" fill="#202020" transform="translate(0,0)"/>
<path d="" fill="#202020" transform="translate(0,0)"/>
<path d="" fill="#202020" transform="translate(0,0)"/>
<path d="" fill="#202020" transform="translate(0,0)"/>
<path d="" fill="#202020" transform="translate(0,0)"/>
<path d="" fill="#202020" transform="translate(0,0)"/>
<path d="" fill="#202020" transform="translate(0,0)"/>
<path d="" fill="#202020" transform="translate(0,0)"/>
<path d="" fill="#202020" transform="translate(0,0)"/>
<path d="" fill="#202020" transform="translate(0,0)"/>
<path d="" fill="#202020" transform="translate(0,0)"/>
<path d="" fill="#202020" transform="translate(0,0)"/>
<path d="" fill="#202020" transform="translate(0,0)"/>
<path d="" fill="#202020" transform="translate(0,0)"/>
<path d="" fill="#202020" transform="translate(0,0)"/>
<path d="" fill="#202020" transform="translate(0,0)"/>
<path d="" fill="#202020" transform="translate(0,0)"/>
<path d="" fill="#202020" transform="translate(0,0)"/>
<path d="" fill="#202020" transform="translate(0,0)"/>
<path d="" fill="#202020" transform="translate(0,0)"/>
<path d="" fill="#202020" transform="translate(0,0)"/>
<path d="" fill="#202020" transform="translate(0,0)"/>
<path d="" fill="#202020" transform="translate(0,0)"/>
<path d="" fill="#202020" transform="translate(0,0)"/>
<path d="" fill="#202020" transform="translate(0,0)"/>
<path d="" fill="#202020" transform="translate(0,0)"/>
<path d="" fill="#202020" transform="translate(0,0)"/>
<path d="" fill="#202020" transform="translate(0,0)"/>
<path d="" fill="#202020" transform="translate(0,0)"/>
<path d="" fill="#202020" transform="translate(0,0)"/>
</svg>
